<svg width="599" height="461" viewBox="0 0 599 461" fill="none" xmlns="http://www.w3.org/2000/svg">
<g filter="url(#filter0_b_91_34)">
<path fill-rule="evenodd" clip-rule="evenodd" d="M0 0H599V461H0V0ZM273.7 211C294.8 211 309.5 195.8 309.5 174.2C309.5 152.2 294.4 137 272.7 137H244.7V211H273.7ZM271.1 152C284.5 152 292.4 160.2 292.4 174.2C292.4 187.9 284.9 196 272.1 196H260.9V152H271.1ZM389.174 173.9C389.174 151.3 374.374 135.7 352.874 135.7C331.474 135.7 316.674 151.4 316.674 174C316.674 196.6 331.374 212.2 352.774 212.2C374.274 212.2 389.174 196.5 389.174 173.9ZM372.074 173.9C372.074 187.9 364.874 196.6 352.974 196.6C340.974 196.6 333.774 188.1 333.774 173.9C333.774 159.8 340.974 151.3 352.974 151.3C364.874 151.3 372.074 159.8 372.074 173.9ZM245.6 295.8C232.4 293.1 225.6 285.6 225.6 273.5C225.6 260.1 236.9 250.6 252.8 250.6C268.7 250.6 278.7 259.4 278.7 273.4H262.6C262.6 268.2 258.7 265 252.6 265C246 265 241.8 268 241.8 272.9C241.8 277.4 244.1 279.6 249.3 280.7L260.4 283C273.6 285.7 279.9 292 279.9 303.7C279.9 318 268.7 327.3 251.7 327.3C235.2 327.3 224.5 318.4 224.5 304.5H240.6C240.6 309.9 244.6 312.9 251.8 312.9C259.1 312.9 263.7 310 263.7 305.3C263.7 301.2 261.8 299.1 256.9 298.1L245.6 295.8ZM306.038 310.4L300.737 326H283.837L310.237 252H326.038L352.337 326H335.138L329.938 310.4H306.038ZM318.038 273.8C317.737 275.5 316.938 278.3 316.038 281L310.737 296.8H325.337L320.038 281C319.237 278.5 318.337 275.6 318.038 273.8ZM387.127 326H370.427L342.727 252H360.027L374.027 289.4C375.727 294 377.127 298.6 378.727 305C380.627 297.9 382.027 293.8 383.627 289.4L397.427 252H414.327L387.127 326ZM470.059 311V326H423.059V252H470.059V267H439.259V281.5H466.559V295.7H439.259V311H470.059ZM535.9 252H519.7V326H565.1V311H535.9V252ZM591.466 252H575.266V326H591.466V252ZM440.9 185.1V211H424.7V137H453.3C471.3 137 481.5 145.7 481.5 161C481.5 170.6 477.4 177.4 469.2 181.6L482.2 211H464.5L453.4 185.1H440.9ZM453.3 151.4H440.9V170.9H453.2C460.3 170.9 464.4 167.3 464.4 161C464.4 154.8 460.5 151.4 453.3 151.4ZM493.548 137H509.748V211H493.548V137ZM574.888 162.2C572.988 154.4 566.188 151 558.488 151C545.088 151 538.188 160.4 538.188 174.7C538.188 189.6 546.588 197 558.388 197C570.588 197 575.988 190.4 576.688 182.7H557.088V168.5H591.888V211H577.988L577.088 204.3C573.088 209 565.088 212.1 556.288 212.1C535.588 212.1 521.088 196.9 521.088 174.2C521.088 151.9 535.988 135.8 558.888 135.8C576.588 135.8 590.188 146.2 591.888 162.2H574.888Z" fill="white" fill-opacity="0.2"/>
</g>
<defs>
<filter id="filter0_b_91_34" x="-40" y="-40" width="679" height="541" filterUnits="userSpaceOnUse" color-interpolation-filters="sRGB">
<feFlood flood-opacity="0" result="BackgroundImageFix"/>
<feGaussianBlur in="BackgroundImage" stdDeviation="20"/>
<feComposite in2="SourceAlpha" operator="in" result="effect1_backgroundBlur_91_34"/>
<feBlend mode="normal" in="SourceGraphic" in2="effect1_backgroundBlur_91_34" result="shape"/>
</filter>
</defs>
</svg>
