<svg width="85" height="85" viewBox="0 0 85 85" fill="none" xmlns="http://www.w3.org/2000/svg">
<path d="M54.7542 64.175L59.7833 69.2042L67.2917 61.6604L74.8 69.2042L79.8292 64.175L72.2854 56.6667L79.8292 49.1583L74.8 44.1292L67.2917 51.6729L59.7833 44.1292L54.7542 49.1583L62.2979 56.6667M53.0188 41.1542C52.6292 36.4083 48.0958 31.7688 42.5 31.875C36.4792 32.0167 31.875 36.4792 31.875 42.5C31.875 48.5208 36.4792 52.9125 42.5 53.125C43.8813 53.125 45.2271 52.8417 46.5375 52.3104C47.4938 48.4146 49.0875 44.7313 53.0188 41.1542ZM46.0417 56.6667H24.7917C24.7917 52.7708 21.6042 49.5833 17.7083 49.5833V35.4167C21.6042 35.4167 24.7917 32.2292 24.7917 28.3333H60.2083C60.2083 32.2292 63.3958 35.4167 67.2917 35.4167V35.5938C69.6646 35.6292 72.0375 36.0542 74.375 36.8333V21.25H10.625V63.75H47.175C46.3958 61.3771 46.0417 59.0042 46.0417 56.6667Z" fill="white"/>
</svg>
