<svg width="31" height="31" viewBox="0 0 31 31" fill="none" xmlns="http://www.w3.org/2000/svg">
<path d="M28.4166 15.5C28.4166 18.9257 27.0558 22.2111 24.6334 24.6335C22.2111 27.0558 18.9257 28.4167 15.5 28.4167C13.8037 28.4167 12.1241 28.0826 10.557 27.4335C8.98986 26.7843 7.56594 25.8329 6.36652 24.6335C3.94417 22.2111 2.58331 18.9257 2.58331 15.5C2.58331 12.0743 3.94417 8.78889 6.36652 6.36655C8.78886 3.9442 12.0743 2.58334 15.5 2.58334C17.1962 2.58334 18.8759 2.91744 20.443 3.56657C22.0101 4.21569 23.434 5.16712 24.6334 6.36655C25.8329 7.56597 26.7843 8.98989 27.4334 10.557C28.0826 12.1241 28.4166 13.8038 28.4166 15.5ZM25.8333 15.5C25.8333 12.7594 24.7446 10.1311 22.8068 8.19324C20.8689 6.25536 18.2406 5.16668 15.5 5.16668C12.7594 5.16668 10.1311 6.25536 8.19321 8.19324C6.25533 10.1311 5.16665 12.7594 5.16665 15.5C5.16665 18.2406 6.25533 20.8689 8.19321 22.8068C10.1311 24.7447 12.7594 25.8333 15.5 25.8333C18.2406 25.8333 20.8689 24.7447 22.8068 22.8068C24.7446 20.8689 25.8333 18.2406 25.8333 15.5ZM11.1083 21.4417L17.05 15.5L11.1083 9.55834L12.9166 7.75001L20.6666 15.5L12.9166 23.25L11.1083 21.4417Z" fill="white"/>
</svg>
