<svg width="31" height="31" viewBox="0 0 31 31" fill="none" xmlns="http://www.w3.org/2000/svg">
<path d="M28.4173 15.5007C28.4173 18.9264 27.0565 22.2118 24.6341 24.6341C22.2118 27.0565 18.9264 28.4173 15.5007 28.4173C13.8044 28.4173 12.1248 28.0832 10.5577 27.4341C8.99053 26.785 7.56661 25.8335 6.36719 24.6341C3.94484 22.2118 2.58398 18.9264 2.58398 15.5007C2.58398 12.0749 3.94484 8.78953 6.36719 6.36719C8.78953 3.94484 12.0749 2.58398 15.5007 2.58398C17.1969 2.58398 18.8765 2.91808 20.4436 3.56721C22.0108 4.21633 23.4347 5.16777 24.6341 6.36719C25.8335 7.56661 26.785 8.99053 27.4341 10.5577C28.0832 12.1248 28.4173 13.8044 28.4173 15.5007ZM25.834 15.5007C25.834 12.7601 24.7453 10.1318 22.8074 8.19388C20.8695 6.25601 18.2412 5.16732 15.5007 5.16732C12.7601 5.16732 10.1318 6.25601 8.19388 8.19388C6.25601 10.1318 5.16732 12.7601 5.16732 15.5007C5.16732 18.2412 6.25601 20.8695 8.19388 22.8074C10.1318 24.7453 12.7601 25.834 15.5007 25.834C18.2412 25.834 20.8695 24.7453 22.8074 22.8074C24.7453 20.8695 25.834 18.2412 25.834 15.5007ZM11.109 21.4423L17.0507 15.5007L11.109 9.55898L12.9173 7.75065L20.6673 15.5007L12.9173 23.2507L11.109 21.4423Z" fill="white"/>
</svg>
