<svg width="31" height="31" viewBox="0 0 31 31" fill="none" xmlns="http://www.w3.org/2000/svg">
<path d="M28.4173 15.5C28.4173 18.9257 27.0565 22.2111 24.6341 24.6334C22.2118 27.0558 18.9264 28.4166 15.5007 28.4166C13.8044 28.4166 12.1248 28.0826 10.5577 27.4334C8.99053 26.7843 7.56661 25.8329 6.36719 24.6334C3.94484 22.2111 2.58398 18.9257 2.58398 15.5C2.58398 12.0743 3.94484 8.78886 6.36719 6.36652C8.78953 3.94417 12.0749 2.58331 15.5007 2.58331C17.1969 2.58331 18.8765 2.91741 20.4436 3.56654C22.0108 4.21566 23.4347 5.16709 24.6341 6.36652C25.8335 7.56594 26.785 8.98986 27.4341 10.557C28.0832 12.1241 28.4173 13.8037 28.4173 15.5ZM25.834 15.5C25.834 12.7594 24.7453 10.1311 22.8074 8.19321C20.8695 6.25533 18.2412 5.16665 15.5007 5.16665C12.7601 5.16665 10.1318 6.25533 8.19388 8.19321C6.25601 10.1311 5.16732 12.7594 5.16732 15.5C5.16732 18.2406 6.25601 20.8689 8.19388 22.8068C10.1318 24.7446 12.7601 25.8333 15.5007 25.8333C18.2412 25.8333 20.8695 24.7446 22.8074 22.8068C24.7453 20.8689 25.834 18.2406 25.834 15.5ZM11.109 21.4416L17.0507 15.5L11.109 9.55831L12.9173 7.74998L20.6673 15.5L12.9173 23.25L11.109 21.4416Z" fill="white"/>
</svg>
