<svg width="31" height="31" viewBox="0 0 31 31" fill="none" xmlns="http://www.w3.org/2000/svg">
<path d="M28.4173 15.5002C28.4173 18.9259 27.0565 22.2113 24.6341 24.6336C22.2118 27.056 18.9264 28.4168 15.5007 28.4168C13.8044 28.4168 12.1248 28.0827 10.5577 27.4336C8.99053 26.7845 7.56661 25.833 6.36719 24.6336C3.94484 22.2113 2.58398 18.9259 2.58398 15.5002C2.58398 12.0745 3.94484 8.78905 6.36719 6.3667C8.78953 3.94436 12.0749 2.5835 15.5007 2.5835C17.1969 2.5835 18.8765 2.9176 20.4436 3.56672C22.0108 4.21584 23.4347 5.16728 24.6341 6.3667C25.8335 7.56612 26.785 8.99005 27.4341 10.5572C28.0832 12.1243 28.4173 13.8039 28.4173 15.5002ZM25.834 15.5002C25.834 12.7596 24.7453 10.1313 22.8074 8.19339C20.8695 6.25552 18.2412 5.16683 15.5007 5.16683C12.7601 5.16683 10.1318 6.25552 8.19388 8.19339C6.25601 10.1313 5.16732 12.7596 5.16732 15.5002C5.16732 18.2407 6.25601 20.8691 8.19388 22.8069C10.1318 24.7448 12.7601 25.8335 15.5007 25.8335C18.2412 25.8335 20.8695 24.7448 22.8074 22.8069C24.7453 20.8691 25.834 18.2407 25.834 15.5002ZM11.109 21.4418L17.0507 15.5002L11.109 9.5585L12.9173 7.75016L20.6673 15.5002L12.9173 23.2502L11.109 21.4418Z" fill="white"/>
</svg>
