<svg width="31" height="31" viewBox="0 0 31 31" fill="none" xmlns="http://www.w3.org/2000/svg">
<path d="M28.4163 15.5C28.4163 18.9258 27.0555 22.2112 24.6331 24.6335C22.2108 27.0558 18.9254 28.4167 15.4997 28.4167C13.8034 28.4167 12.1238 28.0826 10.5567 27.4335C8.98956 26.7844 7.56564 25.8329 6.36621 24.6335C3.94387 22.2112 2.58301 18.9258 2.58301 15.5C2.58301 12.0743 3.94387 8.78892 6.36621 6.36658C8.78856 3.94423 12.074 2.58337 15.4997 2.58337C17.1959 2.58337 18.8755 2.91747 20.4427 3.5666C22.0098 4.21572 23.4337 5.16715 24.6331 6.36658C25.8326 7.566 26.784 8.98992 27.4331 10.557C28.0822 12.1242 28.4163 13.8038 28.4163 15.5ZM25.833 15.5C25.833 12.7595 24.7443 10.1311 22.8064 8.19327C20.8686 6.2554 18.2402 5.16671 15.4997 5.16671C12.7591 5.16671 10.1308 6.2554 8.1929 8.19327C6.25503 10.1311 5.16634 12.7595 5.16634 15.5C5.16634 18.2406 6.25503 20.8689 8.1929 22.8068C10.1308 24.7447 12.7591 25.8334 15.4997 25.8334C18.2402 25.8334 20.8686 24.7447 22.8064 22.8068C24.7443 20.8689 25.833 18.2406 25.833 15.5ZM11.108 21.4417L17.0497 15.5L11.108 9.55837L12.9163 7.75004L20.6663 15.5L12.9163 23.25L11.108 21.4417Z" fill="white"/>
</svg>
