<svg width="31" height="31" viewBox="0 0 31 31" fill="none" xmlns="http://www.w3.org/2000/svg">
<path d="M28.4173 15.5C28.4173 18.9258 27.0565 22.2112 24.6341 24.6335C22.2118 27.0558 18.9264 28.4167 15.5007 28.4167C13.8044 28.4167 12.1248 28.0826 10.5577 27.4335C8.99053 26.7844 7.56661 25.8329 6.36719 24.6335C3.94484 22.2112 2.58398 18.9258 2.58398 15.5C2.58398 12.0743 3.94484 8.78892 6.36719 6.36658C8.78953 3.94423 12.0749 2.58337 15.5007 2.58337C17.1969 2.58337 18.8765 2.91747 20.4436 3.5666C22.0108 4.21572 23.4347 5.16715 24.6341 6.36658C25.8335 7.566 26.785 8.98992 27.4341 10.557C28.0832 12.1242 28.4173 13.8038 28.4173 15.5ZM25.834 15.5C25.834 12.7595 24.7453 10.1311 22.8074 8.19327C20.8695 6.2554 18.2412 5.16671 15.5007 5.16671C12.7601 5.16671 10.1318 6.2554 8.19388 8.19327C6.25601 10.1311 5.16732 12.7595 5.16732 15.5C5.16732 18.2406 6.25601 20.8689 8.19388 22.8068C10.1318 24.7447 12.7601 25.8334 15.5007 25.8334C18.2412 25.8334 20.8695 24.7447 22.8074 22.8068C24.7453 20.8689 25.834 18.2406 25.834 15.5ZM11.109 21.4417L17.0507 15.5L11.109 9.55837L12.9173 7.75004L20.6673 15.5L12.9173 23.25L11.109 21.4417Z" fill="white"/>
</svg>
