<svg width="43" height="23" viewBox="0 0 43 23" fill="none" xmlns="http://www.w3.org/2000/svg">
<path d="M39.343 22.5C39.343 27.4728 37.502 32.2419 34.2249 35.7583C30.9479 39.2746 26.5032 41.25 21.8688 41.25C19.574 41.25 17.3017 40.765 15.1817 39.8227C13.0616 38.8805 11.1352 37.4994 9.51261 35.7583C6.23556 32.2419 4.39453 27.4728 4.39453 22.5C4.39453 17.5272 6.23556 12.7581 9.51261 9.24175C12.7897 5.72544 17.2343 3.75 21.8688 3.75C24.1635 3.75 26.4358 4.23498 28.5559 5.17726C30.6759 6.11953 32.6023 7.50065 34.2249 9.24175C35.8475 10.9828 37.1347 13.0498 38.0128 15.3247C38.891 17.5995 39.343 20.0377 39.343 22.5ZM35.8481 22.5C35.8481 18.5218 34.3753 14.7064 31.7537 11.8934C29.132 9.08035 25.5763 7.5 21.8688 7.5C18.1612 7.5 14.6055 9.08035 11.9838 11.8934C9.3622 14.7064 7.88938 18.5218 7.88938 22.5C7.88938 26.4782 9.3622 30.2936 11.9838 33.1066C14.6055 35.9196 18.1612 37.5 21.8688 37.5C25.5763 37.5 29.132 35.9196 31.7537 33.1066C34.3753 30.2936 35.8481 26.4782 35.8481 22.5ZM15.9275 31.125L23.9657 22.5L15.9275 13.875L18.3739 11.25L28.8584 22.5L18.3739 33.75L15.9275 31.125Z" fill="#F68800"/>
</svg>
