<svg width="31" height="31" viewBox="0 0 31 31" fill="none" xmlns="http://www.w3.org/2000/svg">
<path d="M28.4163 15.5C28.4163 18.9257 27.0555 22.2111 24.6331 24.6334C22.2108 27.0558 18.9254 28.4166 15.4997 28.4166C13.8034 28.4166 12.1238 28.0825 10.5567 27.4334C8.98956 26.7843 7.56564 25.8329 6.36621 24.6334C3.94387 22.2111 2.58301 18.9257 2.58301 15.5C2.58301 12.0743 3.94387 8.78886 6.36621 6.36652C8.78856 3.94417 12.074 2.58331 15.4997 2.58331C17.1959 2.58331 18.8755 2.91741 20.4427 3.56654C22.0098 4.21566 23.4337 5.16709 24.6331 6.36652C25.8326 7.56594 26.784 8.98986 27.4331 10.557C28.0822 12.1241 28.4163 13.8037 28.4163 15.5M25.833 15.5C25.833 12.7594 24.7443 10.1311 22.8064 8.19321C20.8686 6.25533 18.2402 5.16665 15.4997 5.16665C12.7591 5.16665 10.1308 6.25533 8.1929 8.19321C6.25503 10.1311 5.16634 12.7594 5.16634 15.5C5.16634 18.2406 6.25503 20.8689 8.1929 22.8068C10.1308 24.7446 12.7591 25.8333 15.4997 25.8333C18.2402 25.8333 20.8686 24.7446 22.8064 22.8068C24.7443 20.8689 25.833 18.2406 25.833 15.5ZM11.108 21.4416L17.0497 15.5L11.108 9.55831L12.9163 7.74998L20.6663 15.5L12.9163 23.25L11.108 21.4416Z" fill="white"/>
</svg>
