<svg width="31" height="31" viewBox="0 0 31 31" fill="none" xmlns="http://www.w3.org/2000/svg">
<path d="M28.4167 15.5C28.4167 18.9257 27.0558 22.2111 24.6335 24.6334C22.2111 27.0558 18.9257 28.4166 15.5 28.4166C13.8038 28.4166 12.1241 28.0826 10.557 27.4334C8.98989 26.7843 7.56597 25.8329 6.36655 24.6334C3.9442 22.2111 2.58334 18.9257 2.58334 15.5C2.58334 12.0743 3.9442 8.78886 6.36655 6.36652C8.78889 3.94417 12.0743 2.58331 15.5 2.58331C17.1963 2.58331 18.8759 2.91741 20.443 3.56654C22.0101 4.21566 23.4341 5.16709 24.6335 6.36652C25.8329 7.56594 26.7843 8.98986 27.4335 10.557C28.0826 12.1241 28.4167 13.8037 28.4167 15.5ZM25.8333 15.5C25.8333 12.7594 24.7447 10.1311 22.8068 8.19321C20.8689 6.25533 18.2406 5.16665 15.5 5.16665C12.7594 5.16665 10.1311 6.25533 8.19324 8.19321C6.25536 10.1311 5.16668 12.7594 5.16668 15.5C5.16668 18.2406 6.25536 20.8689 8.19324 22.8068C10.1311 24.7446 12.7594 25.8333 15.5 25.8333C18.2406 25.8333 20.8689 24.7446 22.8068 22.8068C24.7447 20.8689 25.8333 18.2406 25.8333 15.5ZM11.1083 21.4416L17.05 15.5L11.1083 9.55831L12.9167 7.74998L20.6667 15.5L12.9167 23.25L11.1083 21.4416Z" fill="white"/>
</svg>
