<svg width="117" height="117" viewBox="0 0 117 117" fill="none" xmlns="http://www.w3.org/2000/svg">
<path d="M48.75 80.4375V36.5625L78 58.5M58.5 9.75C52.0981 9.75 45.7588 11.011 39.8442 13.4609C33.9296 15.9108 28.5554 19.5017 24.0285 24.0285C14.8861 33.1709 9.75 45.5707 9.75 58.5C9.75 71.4293 14.8861 83.8291 24.0285 92.9715C28.5554 97.4983 33.9296 101.089 39.8442 103.539C45.7588 105.989 52.0981 107.25 58.5 107.25C71.4293 107.25 83.8291 102.114 92.9715 92.9715C102.114 83.8291 107.25 71.4293 107.25 58.5C107.25 52.0981 105.989 45.7588 103.539 39.8442C101.089 33.9296 97.4983 28.5554 92.9715 24.0285C88.4446 19.5017 83.0704 15.9108 77.1558 13.4609C71.2412 11.011 64.9019 9.75 58.5 9.75V9.75Z" fill="#F68800"/>
</svg>
