<svg width="84" height="85" viewBox="0 0 84 85" fill="none" xmlns="http://www.w3.org/2000/svg">
<path d="M42 56.6667C39.2152 56.6667 36.5445 55.5473 34.5754 53.5547C32.6062 51.5621 31.5 48.8596 31.5 46.0417C31.5 42.075 33.635 38.6042 36.75 36.7979L70.735 16.8938L51.38 50.8229C49.63 54.2938 46.095 56.6667 42 56.6667ZM42 10.625C48.335 10.625 54.25 12.3958 59.395 15.3L52.045 19.5854C49 18.3813 45.5 17.7083 42 17.7083C34.5739 17.7083 27.452 20.6934 22.201 26.007C16.95 31.3205 14 38.5272 14 46.0417C14 53.8688 17.115 60.9521 22.19 66.0521H22.225C23.59 67.4333 23.59 69.6646 22.225 71.0458C20.86 72.4271 18.62 72.4271 17.255 71.0812C10.92 64.6708 7 55.8167 7 46.0417C7 36.6486 10.6875 27.6402 17.2513 20.9983C23.815 14.3564 32.7174 10.625 42 10.625ZM77 46.0417C77 55.8167 73.08 64.6708 66.745 71.0812C65.38 72.4271 63.175 72.4271 61.81 71.0458C60.445 69.6646 60.445 67.4333 61.81 66.0521C66.885 60.9167 70 53.8688 70 46.0417C70 42.5 69.335 38.9583 68.11 35.7708L72.345 28.3333C75.25 33.6458 77 39.5958 77 46.0417Z" fill="white"/>
</svg>
