<svg width="85" height="86" viewBox="0 0 85 86" fill="none" xmlns="http://www.w3.org/2000/svg">
<path d="M46.0413 30.458H38.958V23.2913H46.0413V30.458ZM46.0413 46.583H38.958V39.4163H46.0413V46.583ZM46.0413 62.708H38.958V55.5413H46.0413V62.708ZM77.9163 35.833V21.4997C77.9163 17.5222 74.7288 14.333 70.833 14.333H14.1663C12.2877 14.333 10.4861 15.0881 9.15767 16.4321C7.82929 17.7761 7.08301 19.599 7.08301 21.4997V35.833C11.0143 35.833 14.1663 39.058 14.1663 42.9997C14.1663 44.9004 13.4201 46.7233 12.0917 48.0673C10.7633 49.4113 8.96162 50.1663 7.08301 50.1663V64.4997C7.08301 66.4004 7.82929 68.2233 9.15767 69.5673C10.4861 70.9113 12.2877 71.6663 14.1663 71.6663H70.833C72.7116 71.6663 74.5133 70.9113 75.8417 69.5673C77.1701 68.2233 77.9163 66.4004 77.9163 64.4997V50.1663C76.0377 50.1663 74.2361 49.4113 72.9077 48.0673C71.5793 46.7233 70.833 44.9004 70.833 42.9997C70.833 41.099 71.5793 39.2761 72.9077 37.9321C74.2361 36.5881 76.0377 35.833 77.9163 35.833Z" fill="white"/>
</svg>
