<svg width="85" height="86" viewBox="0 0 85 86" fill="none" xmlns="http://www.w3.org/2000/svg">
<path d="M46.0423 30.458H38.959V23.2913H46.0423V30.458ZM46.0423 46.583H38.959V39.4163H46.0423V46.583ZM46.0423 62.708H38.959V55.5413H46.0423V62.708ZM77.9173 35.833V21.4997C77.9173 17.5222 74.7298 14.333 70.834 14.333H14.1673C12.2887 14.333 10.487 15.0881 9.15864 16.4321C7.83026 17.7761 7.08398 19.599 7.08398 21.4997V35.833C11.0152 35.833 14.1673 39.058 14.1673 42.9997C14.1673 44.9004 13.421 46.7233 12.0927 48.0673C10.7643 49.4113 8.9626 50.1663 7.08398 50.1663V64.4997C7.08398 66.4004 7.83026 68.2233 9.15864 69.5673C10.487 70.9113 12.2887 71.6663 14.1673 71.6663H70.834C72.7126 71.6663 74.5143 70.9113 75.8427 69.5673C77.171 68.2233 77.9173 66.4004 77.9173 64.4997V50.1663C76.0387 50.1663 74.237 49.4113 72.9086 48.0673C71.5803 46.7233 70.834 44.9004 70.834 42.9997C70.834 41.099 71.5803 39.2761 72.9086 37.9321C74.237 36.5881 76.0387 35.833 77.9173 35.833Z" fill="white"/>
</svg>
