<svg width="85" height="86" viewBox="0 0 85 86" fill="none" xmlns="http://www.w3.org/2000/svg">
<path d="M46.0413 30.4584H38.958V23.2917H46.0413V30.4584ZM46.0413 46.5834H38.958V39.4167H46.0413V46.5834ZM46.0413 62.7084H38.958V55.5417H46.0413V62.7084ZM77.9163 35.8334V21.5C77.9163 17.5225 74.7288 14.3334 70.833 14.3334H14.1663C12.2877 14.3334 10.4861 15.0884 9.15767 16.4324C7.82929 17.7765 7.08301 19.5993 7.08301 21.5V35.8334C11.0143 35.8334 14.1663 39.0584 14.1663 43C14.1663 44.9008 13.4201 46.7236 12.0917 48.0676C10.7633 49.4116 8.96162 50.1667 7.08301 50.1667V64.5C7.08301 66.4008 7.82929 68.2236 9.15767 69.5676C10.4861 70.9116 12.2877 71.6667 14.1663 71.6667H70.833C72.7116 71.6667 74.5133 70.9116 75.8417 69.5676C77.1701 68.2236 77.9163 66.4008 77.9163 64.5V50.1667C76.0377 50.1667 74.2361 49.4116 72.9077 48.0676C71.5793 46.7236 70.833 44.9008 70.833 43C70.833 41.0993 71.5793 39.2765 72.9077 37.9324C74.2361 36.5884 76.0377 35.8334 77.9163 35.8334Z" fill="white"/>
</svg>
