<svg width="85" height="86" viewBox="0 0 85 86" fill="none" xmlns="http://www.w3.org/2000/svg">
<path d="M46.0423 30.4583H38.959V23.2916H46.0423V30.4583ZM46.0423 46.5833H38.959V39.4166H46.0423V46.5833ZM46.0423 62.7083H38.959V55.5416H46.0423V62.7083ZM77.9173 35.8333V21.4999C77.9173 17.5224 74.7298 14.3333 70.834 14.3333H14.1673C12.2887 14.3333 10.487 15.0883 9.15864 16.4323C7.83026 17.7763 7.08398 19.5992 7.08398 21.4999V35.8333C11.0152 35.8333 14.1673 39.0583 14.1673 42.9999C14.1673 44.9006 13.421 46.7235 12.0927 48.0675C10.7643 49.4115 8.9626 50.1666 7.08398 50.1666V64.4999C7.08398 66.4006 7.83026 68.2235 9.15864 69.5675C10.487 70.9115 12.2887 71.6666 14.1673 71.6666H70.834C72.7126 71.6666 74.5143 70.9115 75.8427 69.5675C77.171 68.2235 77.9173 66.4006 77.9173 64.4999V50.1666C76.0387 50.1666 74.237 49.4115 72.9086 48.0675C71.5803 46.7235 70.834 44.9006 70.834 42.9999C70.834 41.0992 71.5803 39.2763 72.9086 37.9323C74.237 36.5883 76.0387 35.8333 77.9173 35.8333Z" fill="white"/>
</svg>
