<svg width="36" height="36" viewBox="0 0 36 36" fill="none" xmlns="http://www.w3.org/2000/svg">
<path d="M36 4.23529C34.675 4.97647 33.2467 5.46353 31.7667 5.69647C33.2811 4.57412 34.4512 2.79529 35.0019 0.656471C33.5736 1.71529 31.9904 2.45647 30.3212 2.88C28.9618 1.05882 27.0516 0 24.8834 0C20.8394 0 17.5354 4.06588 17.5354 9.08471C17.5354 9.80471 17.6042 10.5035 17.7247 11.16C11.5985 10.7788 6.1434 7.15765 2.51243 1.67294C1.87572 3.00706 1.51434 4.57412 1.51434 6.22588C1.51434 9.38118 2.80497 12.1765 4.80115 13.7647C3.57935 13.7647 2.4436 13.3412 1.44551 12.7059C1.44551 12.7059 1.44551 12.7059 1.44551 12.7694C1.44551 17.1741 3.99235 20.8588 7.3652 21.6847C6.7457 21.8965 6.09178 22.0024 5.42065 22.0024C4.95602 22.0024 4.4914 21.9388 4.04398 21.8329C4.97323 25.4118 7.67495 28.08 10.9273 28.1435C8.41491 30.6 5.23136 32.04 1.75526 32.04C1.17017 32.04 0.585086 31.9976 0 31.9129C3.2696 34.4965 7.1587 36 11.3231 36C24.8834 36 32.3346 22.1506 32.3346 10.1435C32.3346 9.74118 32.3346 9.36 32.3174 8.95765C33.7629 7.68706 35.0019 6.07765 36 4.23529Z" fill="white"/>
</svg>
