<svg width="8" height="34" viewBox="0 0 8 34" fill="none" xmlns="http://www.w3.org/2000/svg">
<path d="M4 25.5C5.06087 25.5 6.07828 25.9478 6.82843 26.7448C7.57857 27.5418 8 28.6228 8 29.75C8 30.8772 7.57857 31.9582 6.82843 32.7552C6.07828 33.5522 5.06087 34 4 34C2.93913 34 1.92172 33.5522 1.17157 32.7552C0.421428 31.9582 0 30.8772 0 29.75C0 28.6228 0.421428 27.5418 1.17157 26.7448C1.92172 25.9478 2.93913 25.5 4 25.5ZM4 12.75C5.06087 12.75 6.07828 13.1978 6.82843 13.9948C7.57857 14.7918 8 15.8728 8 17C8 18.1272 7.57857 19.2082 6.82843 20.0052C6.07828 20.8022 5.06087 21.25 4 21.25C2.93913 21.25 1.92172 20.8022 1.17157 20.0052C0.421428 19.2082 0 18.1272 0 17C0 15.8728 0.421428 14.7918 1.17157 13.9948C1.92172 13.1978 2.93913 12.75 4 12.75ZM4 0C5.06087 0 6.07828 0.447766 6.82843 1.2448C7.57857 2.04183 8 3.12283 8 4.25C8 5.37717 7.57857 6.45817 6.82843 7.2552C6.07828 8.05223 5.06087 8.5 4 8.5C2.93913 8.5 1.92172 8.05223 1.17157 7.2552C0.421428 6.45817 0 5.37717 0 4.25C0 3.12283 0.421428 2.04183 1.17157 1.2448C1.92172 0.447766 2.93913 0 4 0Z" fill="#F68800"/>
</svg>
