<svg width="35" height="37" viewBox="0 0 35 37" fill="none" xmlns="http://www.w3.org/2000/svg">
<path d="M18.3166 0.894568C19.0187 0.47797 19.8576 0.357347 20.6486 0.559236C21.4397 0.761124 22.1181 1.26899 22.5347 1.9711C23.1709 3.04326 23.051 4.34928 22.4154 5.29906L24.9647 15.1151L28.7738 21.5348L15.5373 29.3888L11.7281 22.969L4.33427 16.0275C3.1961 16.1302 1.99235 15.6095 1.35618 14.5374C0.93958 13.8353 0.818957 12.9964 1.02085 12.2054C1.22273 11.4143 1.7306 10.7359 2.43271 10.3193C3.13482 9.90268 3.97367 9.78206 4.76472 9.98395C5.55576 10.1858 6.23421 10.6937 6.65081 11.3958C7.04351 12.0576 7.15867 12.7947 7.00999 13.5093L13.1117 15.3473L10.8837 9.99382C9.93913 9.91 9.03894 9.38822 8.51273 8.50137C8.09613 7.79925 7.97551 6.96041 8.1774 6.16936C8.37929 5.37831 8.88715 4.69986 9.58926 4.28327C10.2914 3.86667 11.1302 3.74604 11.9213 3.94793C12.7123 4.14982 13.3908 4.65768 13.8074 5.3598C14.3336 6.24665 14.3602 7.28678 13.9811 8.156L17.6121 12.677L18.8753 6.45105C18.2166 6.21554 17.6328 5.7745 17.2401 5.11267C16.8235 4.41056 16.7029 3.57171 16.9047 2.78066C17.1066 1.98961 17.6145 1.31117 18.3166 0.894568M14.4607 33.6069L32.9919 22.6114L34.5627 25.2587L16.0315 36.2542L14.4607 33.6069Z" fill="#FEA230"/>
</svg>
