<svg width="35" height="38" viewBox="0 0 35 38" fill="none" xmlns="http://www.w3.org/2000/svg">
<path d="M11.6667 17.1H7.77778V20.9H11.6667V17.1ZM19.4444 17.1H15.5556V20.9H19.4444V17.1ZM27.2222 17.1H23.3333V20.9H27.2222V17.1ZM31.1111 3.8H29.1667V0H25.2778V3.8H9.72222V0H5.83333V3.8H3.88889C1.73056 3.8 0 5.51 0 7.6V34.2C0 35.2078 0.409721 36.1744 1.13903 36.887C1.86834 37.5996 2.85749 38 3.88889 38H31.1111C32.1425 38 33.1317 37.5996 33.861 36.887C34.5903 36.1744 35 35.2078 35 34.2V7.6C35 6.59218 34.5903 5.62563 33.861 4.91299C33.1317 4.20036 32.1425 3.8 31.1111 3.8ZM31.1111 34.2H3.88889V13.3H31.1111V34.2Z" fill="#F68800"/>
</svg>
