<svg width="25" height="25" viewBox="0 0 25 25" fill="none" xmlns="http://www.w3.org/2000/svg">
<g filter="url(#filter0_d_101_1312)">
<path d="M16.75 9.35H13.35V12.75H11.65V9.35H8.25V7.65H11.65V4.25H13.35V7.65H16.75M12.5 0C11.3838 0 10.2785 0.219859 9.24719 0.647024C8.21592 1.07419 7.27889 1.70029 6.48959 2.48959C4.89553 4.08365 4 6.24566 4 8.5C4 10.7543 4.89553 12.9163 6.48959 14.5104C7.27889 15.2997 8.21592 15.9258 9.24719 16.353C10.2785 16.7801 11.3838 17 12.5 17C14.7543 17 16.9163 16.1045 18.5104 14.5104C20.1045 12.9163 21 10.7543 21 8.5C21 7.38376 20.7801 6.27846 20.353 5.24719C19.9258 4.21592 19.2997 3.27889 18.5104 2.48959C17.7211 1.70029 16.7841 1.07419 15.7528 0.647024C14.7215 0.219859 13.6162 0 12.5 0Z" fill="#F68800"/>
</g>
<defs>
<filter id="filter0_d_101_1312" x="0" y="0" width="25" height="25" filterUnits="userSpaceOnUse" color-interpolation-filters="sRGB">
<feFlood flood-opacity="0" result="BackgroundImageFix"/>
<feColorMatrix in="SourceAlpha" type="matrix" values="0 0 0 0 0 0 0 0 0 0 0 0 0 0 0 0 0 0 127 0" result="hardAlpha"/>
<feOffset dy="4"/>
<feGaussianBlur stdDeviation="2"/>
<feComposite in2="hardAlpha" operator="out"/>
<feColorMatrix type="matrix" values="0 0 0 0 0 0 0 0 0 0 0 0 0 0 0 0 0 0 0.25 0"/>
<feBlend mode="normal" in2="BackgroundImageFix" result="effect1_dropShadow_101_1312"/>
<feBlend mode="normal" in="SourceGraphic" in2="effect1_dropShadow_101_1312" result="shape"/>
</filter>
</defs>
</svg>
