<svg width="122" height="122" viewBox="0 0 122 122" fill="none" xmlns="http://www.w3.org/2000/svg">
<path d="M67.1 67.1H54.9V30.5H67.1M67.1 91.5H54.9V79.3H67.1M61 0C52.9894 0 45.0572 1.57781 37.6563 4.64335C30.2554 7.70889 23.5309 12.2021 17.8665 17.8665C6.42677 29.3062 0 44.8218 0 61C0 77.1782 6.42677 92.6938 17.8665 104.134C23.5309 109.798 30.2554 114.291 37.6563 117.357C45.0572 120.422 52.9894 122 61 122C77.1782 122 92.6938 115.573 104.134 104.134C115.573 92.6938 122 77.1782 122 61C122 52.9894 120.422 45.0572 117.357 37.6563C114.291 30.2554 109.798 23.5309 104.134 17.8665C98.4691 12.2021 91.7446 7.70889 84.3437 4.64335C76.9428 1.57781 69.0106 0 61 0Z" fill="#F68800"/>
</svg>
