<svg width="53" height="53" viewBox="0 0 53 53" fill="none" xmlns="http://www.w3.org/2000/svg">
<path d="M18.55 53C17.8472 53 17.1731 52.7208 16.6762 52.2238C16.1792 51.7269 15.9 51.0528 15.9 50.35V42.4H5.3C3.89435 42.4 2.54628 41.8416 1.55233 40.8477C0.558391 39.8537 0 38.5056 0 37.1V5.3C0 2.3585 2.385 0 5.3 0H47.7C49.1056 0 50.4537 0.558391 51.4477 1.55233C52.4416 2.54628 53 3.89435 53 5.3V37.1C53 38.5056 52.4416 39.8537 51.4477 40.8477C50.4537 41.8416 49.1056 42.4 47.7 42.4H31.535L21.73 52.2315C21.2 52.735 20.5375 53 19.875 53H18.55ZM21.2 37.1V45.262L29.362 37.1H47.7V5.3H5.3V37.1H21.2ZM39.75 23.85H34.45V18.55H39.75V23.85ZM29.15 23.85H23.85V18.55H29.15V23.85ZM18.55 23.85H13.25V18.55H18.55V23.85Z" fill="#F68800"/>
</svg>
