<svg width="56" height="51" viewBox="0 0 56 51" fill="none" xmlns="http://www.w3.org/2000/svg">
<path d="M28.28 43.218L28 43.4959L27.692 43.218C14.392 31.2392 5.6 23.3183 5.6 15.2861C5.6 9.72752 9.8 5.55858 15.4 5.55858C19.712 5.55858 23.912 8.33787 25.396 12.1177H30.604C32.088 8.33787 36.288 5.55858 40.6 5.55858C46.2 5.55858 50.4 9.72752 50.4 15.2861C50.4 23.3183 41.608 31.2392 28.28 43.218ZM40.6 0C35.728 0 31.052 2.25123 28 5.78093C24.948 2.25123 20.272 0 15.4 0C6.776 0 0 6.69809 0 15.2861C0 25.764 9.52 34.352 23.94 47.3313L28 51L32.06 47.3313C46.48 34.352 56 25.764 56 15.2861C56 6.69809 49.224 0 40.6 0Z" fill="#F68800"/>
</svg>
