<svg width="651" height="208" viewBox="0 0 651 208" fill="none" xmlns="http://www.w3.org/2000/svg">
<path d="M57.2541 74.188C37.4625 87.6456 19.7915 146.064 13.43 173.591L0 208H651C629.795 153.711 582.719 45.1317 564.059 45.1317C545.398 45.1317 520.47 108.851 510.339 140.711C503.27 156.004 485.741 187.202 472.169 189.649C458.598 192.095 450.964 179.963 448.844 173.591L428.345 120.831C423.869 101.715 412.371 57.9776 402.192 35.956C392.014 13.9344 378.631 26.7803 373.212 35.956C362.609 59.405 337.728 109.209 323.026 120.831C304.648 135.359 304.648 140.711 279.909 120.831C255.169 100.951 242.446 1.54673 224.068 0.0174495C209.366 -1.20597 182.6 62.2085 171.055 94.0686C163.045 109.616 144.337 140.711 133.593 140.711C122.849 140.711 109.325 109.616 103.906 94.0686C96.6015 81.8344 77.0456 60.7303 57.2541 74.188Z" fill="url(#paint0_linear_101_1561)"/>
<defs>
<linearGradient id="paint0_linear_101_1561" x1="305.5" y1="-21" x2="326.093" y2="283.827" gradientUnits="userSpaceOnUse">
<stop stop-color="#F68800"/>
<stop offset="1" stop-color="#D9D9D9" stop-opacity="0"/>
</linearGradient>
</defs>
</svg>
