<svg width="50" height="50" viewBox="0 0 50 50" fill="none" xmlns="http://www.w3.org/2000/svg">
<g filter="url(#filter0_d_101_981)">
<path d="M35.5 23.1H27.1V31.5H22.9V23.1H14.5V18.9H22.9V10.5H27.1V18.9H35.5M25 0C22.2422 0 19.5115 0.543181 16.9636 1.59853C14.4158 2.65388 12.1008 4.20073 10.1508 6.15076C6.21249 10.089 4 15.4305 4 21C4 26.5695 6.21249 31.911 10.1508 35.8492C12.1008 37.7993 14.4158 39.3461 16.9636 40.4015C19.5115 41.4568 22.2422 42 25 42C30.5695 42 35.911 39.7875 39.8492 35.8492C43.7875 31.911 46 26.5695 46 21C46 18.2422 45.4568 15.5115 44.4015 12.9636C43.3461 10.4158 41.7993 8.10079 39.8492 6.15076C37.8992 4.20073 35.5842 2.65388 33.0364 1.59853C30.4885 0.543181 27.7578 0 25 0V0Z" fill="#F68800"/>
</g>
<defs>
<filter id="filter0_d_101_981" x="0" y="0" width="50" height="50" filterUnits="userSpaceOnUse" color-interpolation-filters="sRGB">
<feFlood flood-opacity="0" result="BackgroundImageFix"/>
<feColorMatrix in="SourceAlpha" type="matrix" values="0 0 0 0 0 0 0 0 0 0 0 0 0 0 0 0 0 0 127 0" result="hardAlpha"/>
<feOffset dy="4"/>
<feGaussianBlur stdDeviation="2"/>
<feComposite in2="hardAlpha" operator="out"/>
<feColorMatrix type="matrix" values="0 0 0 0 0 0 0 0 0 0 0 0 0 0 0 0 0 0 0.25 0"/>
<feBlend mode="normal" in2="BackgroundImageFix" result="effect1_dropShadow_101_981"/>
<feBlend mode="normal" in="SourceGraphic" in2="effect1_dropShadow_101_981" result="shape"/>
</filter>
</defs>
</svg>
