<svg width="35" height="40" viewBox="0 0 35 40" fill="none" xmlns="http://www.w3.org/2000/svg">
<path d="M11.6667 18H7.77778V22H11.6667V18ZM19.4444 18H15.5556V22H19.4444V18ZM27.2222 18H23.3333V22H27.2222V18ZM31.1111 4H29.1667V0H25.2778V4H9.72222V0H5.83333V4H3.88889C1.73056 4 0 5.8 0 8V36C0 37.0609 0.409721 38.0783 1.13903 38.8284C1.86834 39.5786 2.85749 40 3.88889 40H31.1111C32.1425 40 33.1317 39.5786 33.861 38.8284C34.5903 38.0783 35 37.0609 35 36V8C35 6.93913 34.5903 5.92172 33.861 5.17157C33.1317 4.42143 32.1425 4 31.1111 4ZM31.1111 36H3.88889V14H31.1111V36Z" fill="#F68800"/>
</svg>
